<?xml version="1.0" encoding="iso-8859-1"?>
<!DOCTYPE svg PUBLIC "-//W3C//DTD SVG 1.1//EN" "http://www.w3.org/Graphics/SVG/1.1/DTD/svg11.dtd">
<svg 
 version="1.1" xmlns="http://www.w3.org/2000/svg" xmlns:xlink="http://www.w3.org/1999/xlink" x="0px" y="0px" width="512px"
	 height="512px" viewBox="0 0 512 512" enable-background="new 0 0 512 512" xml:space="preserve"
><g id="b75708d097f2188dff6617b0f00c54b5"><g></g><g fill="#1e4072"><path display="inline" d="M476.65,312.092l-8.926-50.626c-1.771-10.038-11.432-16.804-21.47-15.033l-15.771,2.783
		c-0.499,0.089-0.951,0.279-1.433,0.406l-3.128-17.726c0.5-0.045,0.988-0.02,1.487-0.109l15.775-2.78
		c10.038-1.77,16.803-11.432,15.033-21.469l-8.927-50.623c-1.77-10.038-11.431-16.803-21.469-15.033l-15.775,2.78
		c-0.499,0.088-0.951,0.279-1.437,0.405l-3.12-17.701c0.495-0.047,0.988-0.042,1.483-0.13l15.771-2.78
		c10.038-1.77,16.804-11.431,15.033-21.469l-8.923-50.623c-1.582-8.963-9.447-15.315-18.262-15.315
		c-1.057,0.001-2.132,0.092-3.207,0.282l-15.775,2.78c-0.619,0.109-1.187,0.337-1.78,0.503
		C384.933,16.853,362.913,0.499,338.433,0.5c-3.175,0-6.393,0.275-9.621,0.844L89.823,43.485c-0.836,0.148-1.634,0.38-2.456,0.563
		l-0.021-0.125l-52.277,9.216l9.652,54.744c0.002,0.003,0.002,0.007,0.002,0.011L65.958,228.33l42.85,243.011l0.818-0.145
		c6.646,26.758,33.136,44.354,60.675,39.499l243.953-43.018c28.752-5.071,48.125-32.741,43.058-61.493l-12.29-69.699l-0.633,0.112
		l-0.025-0.148c0.496-0.047,0.984-0.021,1.484-0.108l15.771-2.78C471.655,331.791,478.421,322.13,476.65,312.092z M412.605,55.584
		l8.923,50.619l-15.771,2.782l-8.926-50.621L412.605,55.584z M93.685,65.387l238.989-42.142c1.903-0.335,3.84-0.505,5.759-0.505
		c15.978,0,30.116,11.851,32.886,27.566l54.435,308.69c1.538,8.717-0.445,17.553-5.582,24.89
		c-5.137,7.334-12.764,12.221-21.479,13.755l-238.992,42.142c-0.827,0.146-1.661,0.246-2.496,0.33L91.229,65.946
		C92.04,65.738,92.853,65.533,93.685,65.387z M410.564,446.77l-243.95,43.015c-16.077,2.834-31.498-6.99-36.04-22.28l30.509-5.379
		l-0.02-0.108c0.833-0.108,1.664-0.182,2.498-0.33l238.992-42.142c13.042-2.298,24.23-9.053,32.31-18.402l1.539,8.727
		C439.45,427.165,427.863,443.719,410.564,446.77z M350.74,209.373L329.231,87.4l-174.25,30.725l21.505,121.972L350.74,209.373z
		 M314.198,108.871l15.072,85.469l-137.751,24.287l-15.069-85.469L314.198,108.871z M182.636,274.949l174.25-30.725l6.144,34.852
		l-174.25,30.725L182.636,274.949z M191.852,327.223l174.25-30.725l6.146,34.852l-174.254,30.728L191.852,327.223z"></path></g></g></svg>